<?xml version="1.0" encoding="UTF-8"?>
<!DOCTYPE svg PUBLIC "-//W3C//DTD SVG 1.1//EN" "http://www.w3.org/Graphics/SVG/1.1/DTD/svg11.dtd">
<!-- Creator: CorelDRAW X8 -->
<svg xmlns="http://www.w3.org/2000/svg" xml:space="preserve" width="50mm" height="74.9999mm" version="1.1" style="shape-rendering:geometricPrecision; text-rendering:geometricPrecision; image-rendering:optimizeQuality; fill-rule:evenodd; clip-rule:evenodd"
viewBox="0 0 1527 2291"
 xmlns:xlink="http://www.w3.org/1999/xlink">
 <defs>
  <style type="text/css">
   <![CDATA[
    .fil1 {fill:#FEFEFE}
    .fil0 {fill:#727376}
    .fil2 {fill:#00A859}
   ]]>
  </style>
 </defs>
 <g id="Layer_x0020_1">
  <metadata id="CorelCorpID_0Corel-Layer"/>
  <rect class="fil0" transform="matrix(1.10352E-14 0.416666 -1.03988 2.75408E-14 1466.21 -8.31619E-06)" width="5498" height="1410"/>
  <rect class="fil1" transform="matrix(7.35682E-16 0.0277778 -0.0649926 1.7213E-15 427.644 -9.84161E-05)" width="5498" height="1410"/>
  <rect class="fil1" transform="matrix(1.47136E-15 0.0555556 -0.0649926 1.7213E-15 427.644 420.004)" width="5498" height="1410"/>
  <rect class="fil1" transform="matrix(1.47136E-15 0.0555556 -0.0649926 1.7213E-15 427.644 992.738)" width="5498" height="1410"/>
  <rect class="fil2" transform="matrix(1.10352E-14 0.416666 -0.0433284 1.14753E-15 61.092 -0.00147624)" width="5498" height="1410"/>
  <rect class="fil2" transform="matrix(9.01207E-15 0.340277 -0.0649926 1.7213E-15 809.469 -0.00120559)" width="5498" height="1410"/>
  <rect class="fil1" x="61" y="1718" width="656.739" height="91.638"/>
  <rect class="fil1" transform="matrix(1.47136E-15 0.0555556 -0.0433284 1.14753E-15 122.185 1928.21)" width="5498" height="1410"/>
  <rect class="fil1" transform="matrix(1.47136E-15 0.0555556 -0.0433284 1.14753E-15 733.105 1928.21)" width="5498" height="1410"/>
  <rect class="fil1" transform="matrix(1.47136E-15 0.0555556 -0.0433284 1.14753E-15 610.921 1928.21)" width="5498" height="1410"/>
  <rect class="fil1" transform="matrix(1.47136E-15 0.0555556 -0.0433284 1.14753E-15 488.737 1928.21)" width="5498" height="1410"/>
  <rect class="fil1" transform="matrix(1.47136E-15 0.0555556 -0.0433284 1.14753E-15 366.553 1928.21)" width="5498" height="1410"/>
  <rect class="fil1" transform="matrix(1.47136E-15 0.0555556 -0.0433284 1.14753E-15 244.369 1928.21)" width="5498" height="1410"/>
  <rect class="fil1" transform="matrix(7.35682E-16 0.0277778 -0.0649926 1.7213E-15 427.644 1565.47)" width="5498" height="1410"/>
  <rect class="fil1" transform="matrix(7.35682E-16 0.0277778 -0.0649926 1.7213E-15 1191.29 -9.84161E-05)" width="5498" height="1410"/>
  <rect class="fil1" transform="matrix(1.47136E-15 0.0555556 -0.0649926 1.7213E-15 1191.29 420.004)" width="5498" height="1410"/>
  <rect class="fil1" transform="matrix(1.47136E-15 0.0555556 -0.0649926 1.7213E-15 1191.29 992.738)" width="5498" height="1410"/>
  <rect class="fil1" transform="matrix(1.47136E-15 0.0555556 -0.0649926 1.7213E-15 1191.29 1565.47)" width="5498" height="1410"/>
  <rect class="fil1" transform="matrix(1.47136E-15 0.0555556 -0.0433284 1.14753E-15 1221.84 1928.21)" width="5498" height="1410"/>
  <rect class="fil1" transform="matrix(1.47136E-15 0.0555556 -0.0433284 1.14753E-15 1099.66 1928.21)" width="5498" height="1410"/>
  <rect class="fil1" transform="matrix(1.47136E-15 0.0555556 -0.0433284 1.14753E-15 977.473 1928.21)" width="5498" height="1410"/>
  <rect class="fil1" transform="matrix(1.47136E-15 0.0555556 -0.0433284 1.14753E-15 855.289 1928.21)" width="5498" height="1410"/>
  <rect class="fil2" transform="matrix(1.10352E-14 0.416666 -0.0433284 1.14753E-15 1527.3 -0.00147624)" width="5498" height="1410"/>
  <rect class="fil1" transform="matrix(1.47136E-15 0.0555556 -0.0433284 1.14753E-15 1466.21 1928.21)" width="5498" height="1410"/>
  <rect class="fil1" transform="matrix(1.47136E-15 0.0555556 -0.0433284 1.14753E-15 1344.02 1928.21)" width="5498" height="1410"/>
 </g>
</svg>
