<?xml version="1.0" encoding="UTF-8"?>
<!DOCTYPE svg PUBLIC "-//W3C//DTD SVG 1.1//EN" "http://www.w3.org/Graphics/SVG/1.1/DTD/svg11.dtd">
<!-- Creator: CorelDRAW X8 -->
<svg xmlns="http://www.w3.org/2000/svg" xml:space="preserve" width="74.9999mm" height="50mm" version="1.1" style="shape-rendering:geometricPrecision; text-rendering:geometricPrecision; image-rendering:optimizeQuality; fill-rule:evenodd; clip-rule:evenodd"
viewBox="0 0 4056 2704"
 xmlns:xlink="http://www.w3.org/1999/xlink">
 <defs>
  <style type="text/css">
   <![CDATA[
    .fil1 {fill:#FEFEFE}
    .fil0 {fill:#727376}
    .fil2 {fill:#00A859}
   ]]>
  </style>
 </defs>
 <g id="Layer_x0020_1">
  <metadata id="CorelCorpID_0Corel-Layer"/>
  <rect class="fil0" width="4056" height="2596"/>
  <rect class="fil1" x="3785" y="595" width="270" height="162"/>
  <rect class="fil1" x="2772" y="595" width="541" height="162"/>
  <rect class="fil1" x="1758" y="595" width="541" height="162"/>
  <rect class="fil2" width="4056" height="108"/>
  <rect class="fil2" x="744" y="1271" width="3312" height="162"/>
  <rect class="fil1" transform="matrix(-7.35682E-16 -0.119444 0.0649926 -7.40159E-15 851.744 1270.84)" width="9734" height="2496"/>
  <rect class="fil1" x="101" y="108" width="541" height="108"/>
  <rect class="fil1" x="101" y="1190" width="541" height="108"/>
  <rect class="fil1" x="101" y="973" width="541" height="108"/>
  <rect class="fil1" x="101" y="757" width="541" height="108"/>
  <rect class="fil1" x="101" y="541" width="541" height="108"/>
  <rect class="fil1" x="101" y="324" width="541" height="108"/>
  <rect class="fil1" x="1014" y="595" width="270" height="162"/>
  <rect class="fil1" x="3785" y="1947" width="270" height="162"/>
  <rect class="fil1" x="2772" y="1947" width="541" height="162"/>
  <rect class="fil1" x="1758" y="1947" width="541" height="162"/>
  <rect class="fil1" x="744" y="1947" width="541" height="162"/>
  <rect class="fil1" x="101" y="2055" width="541" height="108"/>
  <rect class="fil1" x="101" y="1839" width="541" height="108"/>
  <rect class="fil1" x="101" y="1622" width="541" height="108"/>
  <rect class="fil1" x="101" y="1406" width="541" height="108"/>
  <rect class="fil2" y="2596" width="4056" height="108"/>
  <rect class="fil1" x="101" y="2488" width="541" height="108"/>
  <rect class="fil1" x="101" y="2271" width="541" height="108"/>
 </g>
</svg>
