<?xml version="1.0" encoding="UTF-8"?>
<!DOCTYPE svg PUBLIC "-//W3C//DTD SVG 1.1//EN" "http://www.w3.org/Graphics/SVG/1.1/DTD/svg11.dtd">
<!-- Creator: CorelDRAW X8 -->
<svg xmlns="http://www.w3.org/2000/svg" xml:space="preserve" width="50mm" height="74.9999mm" version="1.1" style="shape-rendering:geometricPrecision; text-rendering:geometricPrecision; image-rendering:optimizeQuality; fill-rule:evenodd; clip-rule:evenodd"
viewBox="0 0 1527 2291"
 xmlns:xlink="http://www.w3.org/1999/xlink">
 <defs>
  <style type="text/css">
   <![CDATA[
    .fil1 {fill:#FEFEFE}
    .fil0 {fill:#727376}
    .fil2 {fill:#00A859}
   ]]>
  </style>
 </defs>
 <g id="Layer_x0020_1">
  <metadata id="CorelCorpID_0Corel-Layer"/>
  <rect class="fil0" transform="matrix(-1.10352E-14 -0.416666 1.03988 -2.75408E-14 61.0906 2290.95)" width="5498" height="1410"/>
  <rect class="fil1" transform="matrix(-7.35682E-16 -0.0277778 0.0649926 -1.7213E-15 1099.66 2290.95)" width="5498" height="1410"/>
  <rect class="fil1" transform="matrix(-1.47136E-15 -0.0555556 0.0649926 -1.7213E-15 1099.66 1870.94)" width="5498" height="1410"/>
  <rect class="fil1" transform="matrix(-1.47136E-15 -0.0555556 0.0649926 -1.7213E-15 1099.66 1298.21)" width="5498" height="1410"/>
  <rect class="fil2" transform="matrix(-1.10352E-14 -0.416666 0.0433284 -1.14753E-15 1466.21 2290.95)" width="5498" height="1410"/>
  <rect class="fil2" transform="matrix(-9.01207E-15 -0.340277 0.0649926 -1.7213E-15 717.831 2290.95)" width="5498" height="1410"/>
  <rect class="fil1" x="809" y="481" width="656.739" height="91.638"/>
  <rect class="fil1" transform="matrix(-1.47136E-15 -0.0555556 0.0433284 -1.14753E-15 1405.11 362.737)" width="5498" height="1410"/>
  <rect class="fil1" transform="matrix(-1.47136E-15 -0.0555556 0.0433284 -1.14753E-15 794.195 362.737)" width="5498" height="1410"/>
  <rect class="fil1" transform="matrix(-1.47136E-15 -0.0555556 0.0433284 -1.14753E-15 916.379 362.737)" width="5498" height="1410"/>
  <rect class="fil1" transform="matrix(-1.47136E-15 -0.0555556 0.0433284 -1.14753E-15 1038.56 362.737)" width="5498" height="1410"/>
  <rect class="fil1" transform="matrix(-1.47136E-15 -0.0555556 0.0433284 -1.14753E-15 1160.75 362.737)" width="5498" height="1410"/>
  <rect class="fil1" transform="matrix(-1.47136E-15 -0.0555556 0.0433284 -1.14753E-15 1282.93 362.737)" width="5498" height="1410"/>
  <rect class="fil1" transform="matrix(-7.35682E-16 -0.0277778 0.0649926 -1.7213E-15 1099.66 725.474)" width="5498" height="1410"/>
  <rect class="fil1" transform="matrix(-7.35682E-16 -0.0277778 0.0649926 -1.7213E-15 336.006 2290.95)" width="5498" height="1410"/>
  <rect class="fil1" transform="matrix(-1.47136E-15 -0.0555556 0.0649926 -1.7213E-15 336.006 1870.94)" width="5498" height="1410"/>
  <rect class="fil1" transform="matrix(-1.47136E-15 -0.0555556 0.0649926 -1.7213E-15 336.006 1298.21)" width="5498" height="1410"/>
  <rect class="fil1" transform="matrix(-1.47136E-15 -0.0555556 0.0649926 -1.7213E-15 336.006 725.474)" width="5498" height="1410"/>
  <rect class="fil1" transform="matrix(-1.47136E-15 -0.0555556 0.0433284 -1.14753E-15 305.459 362.737)" width="5498" height="1410"/>
  <rect class="fil1" transform="matrix(-1.47136E-15 -0.0555556 0.0433284 -1.14753E-15 427.643 362.737)" width="5498" height="1410"/>
  <rect class="fil1" transform="matrix(-1.47136E-15 -0.0555556 0.0433284 -1.14753E-15 549.827 362.737)" width="5498" height="1410"/>
  <rect class="fil1" transform="matrix(-1.47136E-15 -0.0555556 0.0433284 -1.14753E-15 672.011 362.737)" width="5498" height="1410"/>
  <rect class="fil2" transform="matrix(-1.10352E-14 -0.416666 0.0433284 -1.14753E-15 -5.91717E-05 2290.95)" width="5498" height="1410"/>
  <rect class="fil1" transform="matrix(-1.47136E-15 -0.0555556 0.0433284 -1.14753E-15 61.091 362.737)" width="5498" height="1410"/>
  <rect class="fil1" transform="matrix(-1.47136E-15 -0.0555556 0.0433284 -1.14753E-15 183.275 362.737)" width="5498" height="1410"/>
 </g>
</svg>
