<?xml version="1.0" encoding="UTF-8"?>
<!DOCTYPE svg PUBLIC "-//W3C//DTD SVG 1.1//EN" "http://www.w3.org/Graphics/SVG/1.1/DTD/svg11.dtd">
<!-- Creator: CorelDRAW X8 -->
<svg xmlns="http://www.w3.org/2000/svg" xml:space="preserve" width="74.9999mm" height="50mm" version="1.1" style="shape-rendering:geometricPrecision; text-rendering:geometricPrecision; image-rendering:optimizeQuality; fill-rule:evenodd; clip-rule:evenodd"
viewBox="0 0 2747 1832"
 xmlns:xlink="http://www.w3.org/1999/xlink">
 <defs>
  <style type="text/css">
   <![CDATA[
    .fil1 {fill:#FEFEFE}
    .fil0 {fill:#727376}
    .fil2 {fill:#00A859}
   ]]>
  </style>
 </defs>
 <g id="Layer_x0020_1">
  <metadata id="CorelCorpID_0Corel-Layer"/>
  <rect class="fil0" y="73" width="2747" height="1758"/>
  <rect class="fil1" y="1319" width="183" height="110"/>
  <rect class="fil1" x="504" y="1319" width="366" height="110"/>
  <rect class="fil1" x="1191" y="1319" width="366" height="110"/>
  <rect class="fil2" y="1758" width="2747.36" height="73.2631"/>
  <rect class="fil2" y="861" width="2244" height="110"/>
  <rect class="fil1" transform="matrix(7.35682E-16 0.119444 -0.0649926 7.40159E-15 2170.41 970.735)" width="6594" height="1691"/>
  <rect class="fil1" x="2312" y="1685" width="366.315" height="73.2631"/>
  <rect class="fil1" x="2312" y="952" width="366.315" height="73.2631"/>
  <rect class="fil1" x="2312" y="1099" width="366.315" height="73.2631"/>
  <rect class="fil1" x="2312" y="1245" width="366.315" height="73.2631"/>
  <rect class="fil1" x="2312" y="1392" width="366.315" height="73.2631"/>
  <rect class="fil1" x="2312" y="1539" width="366.315" height="73.2631"/>
  <rect class="fil1" x="1877" y="1319" width="183" height="110"/>
  <rect class="fil1" y="403" width="183" height="110"/>
  <rect class="fil1" x="504" y="403" width="366" height="110"/>
  <rect class="fil1" x="1191" y="403" width="366" height="110"/>
  <rect class="fil1" x="1877" y="403" width="366" height="110"/>
  <rect class="fil2" width="2747.36" height="73.2631"/>
  <rect class="fil1" x="2312" y="73" width="366.315" height="73.2631"/>
  <rect class="fil1" x="2312" y="220" width="366.315" height="73.2631"/>
  <rect class="fil1" x="2312" y="366" width="366.315" height="73.2631"/>
  <rect class="fil1" x="2312" y="513" width="366.315" height="73.2631"/>
  <rect class="fil1" x="2312" y="659" width="366.315" height="73.2631"/>
  <rect class="fil1" x="2312" y="806" width="366.315" height="73.2631"/>
 </g>
</svg>
